<svg xmlns="http://www.w3.org/2000/svg" viewBox="0 0 121.68 119.8"><defs><style>.cls-1{fill:#136f84;}.cls-2{fill:#fff;}.cls-3{fill:#27cfd5;}</style></defs><g id="Capa_2" data-name="Capa 2"><g id="Capa_1-2" data-name="Capa 1"><rect class="cls-1" width="121.68" height="119.8" rx="13.14"/><path class="cls-2" d="M29.18,96.72h71.49a1.11,1.11,0,0,0,1.11-1.11V24.49a1.11,1.11,0,0,0-1.11-1.11H85.36V19a1.11,1.11,0,0,0-2.22,0v4.36H66V19a1.11,1.11,0,1,0-2.22,0v4.36H46.88V19a1.11,1.11,0,0,0-2.22,0v4.36H29.18a1.11,1.11,0,0,0-1.11,1.11V40.9c0,20.13-8.3,36.35-16,42.91a1.11,1.11,0,0,0,.69,2H28.07v9.83A1.11,1.11,0,0,0,29.18,96.72ZM99.56,94.5H30.29V85.78h54a1.14,1.14,0,0,0,.72-.26c3.17-2.64,8.11-9.08,11.46-17l3.13-7.35ZM30.29,25.6H44.66V30a1.11,1.11,0,1,0,2.22,0V25.6H63.81V30A1.11,1.11,0,1,0,66,30V25.6H83.14V30a1.11,1.11,0,0,0,2.22,0V25.6h14.2V39.79H30.29Zm-14.64,58,2.06-2.63c7.6-9.69,12.05-23,12.53-37.35L30.29,42H99.57l-.06,1.68c-.57,15.89-6.25,30.62-15.19,39.4l-.48.47Z"/><path class="cls-2" d="M38.7,56.2h-.27a1.79,1.79,0,0,1-1.52-2l.53-4.1a2,2,0,0,1,2-1.75h4.11l.27,0a1.78,1.78,0,0,1,1.51,2l-.52,4.09a2,2,0,0,1-2,1.75H38.7Zm4.41-5.69H39.58L39.13,54h3.53Z"/><path class="cls-2" d="M50.57,56.2a1.22,1.22,0,0,1-.27,0,1.77,1.77,0,0,1-1.51-2l.52-4.1a2,2,0,0,1,2-1.75h4.11l.27,0a1.78,1.78,0,0,1,1.52,2l-.53,4.09a2,2,0,0,1-2,1.75ZM55,50.51H51.46L51,54h3.52Z"/><path class="cls-2" d="M62.45,56.2h-.27a1.78,1.78,0,0,1-1.51-2l.52-4.1a2,2,0,0,1,2-1.75h4.11l.27,0a1.79,1.79,0,0,1,1.52,2l-.53,4.09a2,2,0,0,1-2,1.75Zm4.41-5.69H63.33L62.88,54h3.53Z"/><path class="cls-2" d="M37.36,66.65h-.28a1.78,1.78,0,0,1-1.51-2l.53-4.09a2,2,0,0,1,2-1.75H42.2a1.23,1.23,0,0,1,.27,0,1.77,1.77,0,0,1,1.51,2l-.52,4.09a2,2,0,0,1-2,1.75ZM41.77,61H38.24l-.45,3.51h3.53Z"/><path class="cls-2" d="M49,66.64a1.79,1.79,0,0,1-1.52-2L48,60.53a2,2,0,0,1,2-1.75h4.12a1.14,1.14,0,0,1,.26,0,1.77,1.77,0,0,1,1.52,2l-.52,4.09a2,2,0,0,1-2,1.75H49ZM53.65,61H50.11l-.45,3.51h3.53Z"/><path class="cls-3" d="M60.84,66.64a1.78,1.78,0,0,1-1.51-2l.52-4.09a2,2,0,0,1,2-1.75H66a1.27,1.27,0,0,1,.28,0,1.78,1.78,0,0,1,1.51,2l-.53,4.09a2,2,0,0,1-2,1.75H60.84Z"/><path class="cls-2" d="M73,66.65h-.27a1.78,1.78,0,0,1-1.51-2l.52-4.09a2,2,0,0,1,2-1.75h4.11a1.23,1.23,0,0,1,.27,0,1.77,1.77,0,0,1,1.51,2l-.52,4.09a2,2,0,0,1-2,1.75ZM77.4,61H73.87l-.45,3.51H77Z"/><path class="cls-2" d="M47.9,77.1a1.23,1.23,0,0,1-.27,0,1.78,1.78,0,0,1-1.52-2L46.64,71a2,2,0,0,1,2-1.75H53a1.78,1.78,0,0,1,1.51,2L54,75.35a2,2,0,0,1-2,1.75Zm4.41-5.69H48.78l-.45,3.51h3.53Z"/><path class="cls-2" d="M59.77,77.1a1.23,1.23,0,0,1-.27,0,1.78,1.78,0,0,1-1.51-2L58.52,71a2,2,0,0,1,2-1.75h4.39a1.78,1.78,0,0,1,1.51,2l-.52,4.09a2,2,0,0,1-2,1.75Zm4.41-5.69H60.66l-.45,3.51h3.52Z"/><path class="cls-2" d="M71.65,77.1a1.23,1.23,0,0,1-.27,0,1.78,1.78,0,0,1-1.51-2L70.39,71a2,2,0,0,1,2-1.75h4.38a1.79,1.79,0,0,1,1.52,2l-.53,4.09a2,2,0,0,1-2,1.75Zm4.41-5.7H72.54l-.46,3.52h3.53Z"/></g></g></svg>