<svg xmlns="http://www.w3.org/2000/svg" viewBox="0 0 121.68 119.8"><defs><style>.cls-1{fill:#136f84;}.cls-2{fill:#fff;}.cls-3{fill:#32bab0;}.cls-4{isolation:isolate;}.cls-5{fill:#27cfd5;}</style></defs><g id="Capa_2" data-name="Capa 2"><g id="Capa_1-2" data-name="Capa 1"><rect class="cls-1" width="121.68" height="119.8" rx="13.14"/><path class="cls-2" d="M49.09,106.86a1.59,1.59,0,0,1-.51-.08,1.81,1.81,0,0,1-1.07-1,13.66,13.66,0,0,0-2.41-2.38l-.32-.27a33.47,33.47,0,0,0-4.12-2.46l-2.48-1,2.92-6.18.9.41.89.45.82.41.1,0a37.84,37.84,0,0,1,5,3.63l.19.19a8.23,8.23,0,0,1,2.13,2.93,4.46,4.46,0,0,1,.39,2.51h0a4.71,4.71,0,0,1-.47,1.46,1.63,1.63,0,0,1-.34.47v0l-.13.28-.32.12a1.4,1.4,0,0,1-.36.23A1.84,1.84,0,0,1,49.09,106.86Zm-8.18-8.28.63.25a33.23,33.23,0,0,1,4.52,2.72l.31.25a14.82,14.82,0,0,1,2.86,2.9h0l.06-.06v0a2.65,2.65,0,0,0,.27-.75,2.52,2.52,0,0,0-.18-1.4l-.06-.13a6.37,6.37,0,0,0-1.69-2.29l-.15-.14a35.19,35.19,0,0,0-4.68-3.36l-.76-.39Z"/><polygon class="cls-3" points="58 60.78 58 60.78 53.66 69.84 58 60.78"/><rect class="cls-2" x="50.81" y="64.81" width="10.04" height="1" transform="translate(-27.18 87.49) rotate(-64.44)"/><polygon class="cls-2" points="45.21 87.46 45.27 87.28 45.19 87.46 45.91 85.59 46.03 85.64 45.21 87.46"/><polygon class="cls-2" points="45.08 87.41 44.96 87.33 45.61 86.31 45.95 85.61 45.94 85.63 45.95 85.61 45.67 86.21 46.03 85.65 45.58 86.4 46.07 85.67 45.53 86.51 45.08 87.41"/><polygon class="cls-2" points="50.11 79.11 48.3 78.26 49.09 76.58 49.16 76.6 62.46 49.01 64.26 49.88 50.19 79.07 50.14 79.05 50.11 79.11"/><polygon class="cls-2" points="35.14 110.78 26.08 106.71 36.03 82.81 37.88 83.58 28.67 105.68 34.17 108.15 44.31 86.7 46.12 87.56 35.14 110.78"/><polygon class="cls-2" points="41.14 75.74 40.28 75.38 40.24 75.5 39.21 75.16 39.62 74.16 52.21 44.58 54.05 45.36 41.14 75.74"/><path class="cls-2" d="M69.57,38.87,67.77,38h0l4.08-8.39.51-.09a9.6,9.6,0,0,0,7.23-5.65,9.89,9.89,0,1,0-17.45,1.07l.25.42L59,33.77l0,0-.18.43L57,33.39l1-2.26,2.23-5.61a11.89,11.89,0,1,1,21.24-.84,11.7,11.7,0,0,1-8.2,6.7l-2.63,5.41h0Z"/><g class="cls-4"><path class="cls-5" d="M73.48,13.72A1.14,1.14,0,0,1,74,15.2a1.21,1.21,0,0,1-1.48.57,4.77,4.77,0,0,0-6.3,2.39,1.12,1.12,0,1,1-2-.92A6.93,6.93,0,0,1,73.48,13.72Z"/><path class="cls-5" d="M65.23,19.31a1.57,1.57,0,0,1-.65-.13,1.6,1.6,0,0,1-.86-.94,1.65,1.65,0,0,1,0-1.2,7.17,7.17,0,0,1,4-3.92,7.51,7.51,0,0,1,5.88.15h0a1.57,1.57,0,0,1,.86.94,1.66,1.66,0,0,1,0,1.2,1.72,1.72,0,0,1-2.15.81,4.28,4.28,0,0,0-5.63,2.14,1.6,1.6,0,0,1-.94.86A1.76,1.76,0,0,1,65.23,19.31Zm5.34-5.72a6.4,6.4,0,0,0-2.4.46,6.2,6.2,0,0,0-3.49,3.38.66.66,0,0,0,0,.48.62.62,0,0,0,.33.36.66.66,0,0,0,.46,0,.62.62,0,0,0,.36-.33,5.28,5.28,0,0,1,7-2.64.7.7,0,0,0,.82-.31.61.61,0,0,0,0-.46.59.59,0,0,0-.33-.36h0A6.61,6.61,0,0,0,70.57,13.59Z"/></g><path class="cls-2" d="M44.7,67.33l-2.3-1.19-1.1-.36-.54-.25c-1-.59-1.91-1.28-2.81-2a16.66,16.66,0,0,1-4.49-5.39,18.66,18.66,0,0,1-1.39-13.82,8.55,8.55,0,0,1,.63-1.71l.72-1.59c.18-.27.32-.5.45-.72s.33-.56.53-.86c.37-.51.74-1,1.06-1.43l.09-.12a17.53,17.53,0,0,1,5.33-4.46A18.85,18.85,0,0,1,54.75,32l.12.05a5.83,5.83,0,0,0,.69.25c.3.1.59.19.91.33l7.39,3.32c1.3.59,2.66,1.14,4,1.66s2.71,1.09,4.06,1.69a8.7,8.7,0,0,0,3.3.53,7.64,7.64,0,0,1,6.5-4.34,9.07,9.07,0,0,1,2.61.13c4.77.69,13.84,3.32,14.37,8.44h0c.45,5-7.45,9.48-12.59,11.15a6.43,6.43,0,0,1-2.59.65,8.15,8.15,0,0,1-7.43-3.35,39,39,0,0,1-8.42-1.28c-1.48-.39-3-.94-4.48-1.47-.78-.35-1.52-.65-2.27-1s-1.54-.63-2.26-.95l-6.87-3.09a1.93,1.93,0,0,1-.72-.19,5.12,5.12,0,0,0-3.8.49,8.19,8.19,0,0,0-1.56,1.26,2.6,2.6,0,0,1-.26.34l-.17.38-.17.06-.49,1.08a5.38,5.38,0,0,0,.32,4,8.86,8.86,0,0,0,1.27,1.7,3,3,0,0,0,.73.54l2.74,1.23Zm-2.32-3.26.84.24.49.25,3.34-7.87-.95-.42a5.56,5.56,0,0,1-1.27-.89,11,11,0,0,1-1.66-2.2,7.49,7.49,0,0,1-.47-5.62l.39-.9.2-.44a1.89,1.89,0,0,1,.48-.68,1.78,1.78,0,0,1,.19-.23l.06-.15.11-.1a10.23,10.23,0,0,1,2.09-1.71,7.13,7.13,0,0,1,5.43-.69l.14.05.14.06h.23l1.56.68L59.46,46c.7.32,1.45.62,2.19.92s1.54.63,2.27,1c1.36.49,2.84,1,4.23,1.39a35.69,35.69,0,0,0,8.47,1.23h.55l.29.46a6.19,6.19,0,0,0,5.94,2.87,4.19,4.19,0,0,0,1.85-.47l.15-.06C90.33,51.74,97,47.7,96.69,44.24S89,38.29,84,37.58l-.11,0a7,7,0,0,0-2-.08,5.67,5.67,0,0,0-5.06,3.72l-.25.65-1,0a11.09,11.09,0,0,1-4.4-.71c-1.31-.59-2.67-1.13-4-1.66S64.38,38.36,63,37.76l-7.39-3.32a5.37,5.37,0,0,0-.7-.25,8.59,8.59,0,0,1-.83-.31,16.83,16.83,0,0,0-12.29,1.36,15.46,15.46,0,0,0-4.65,3.87L37,39.3c-.3.38-.65.87-1,1.35-.17.24-.3.47-.44.71s-.27.47-.46.75l-.61,1.36A8.12,8.12,0,0,0,34,44.88a16.75,16.75,0,0,0,1.21,12.36A14.66,14.66,0,0,0,39.14,62a31.24,31.24,0,0,0,2.59,1.81Z"/><polygon class="cls-2" points="39.38 76.71 39.32 76.69 40.13 74.86 40.08 75 40.14 74.86 39.78 75.8 39.38 76.71"/><polygon class="cls-2" points="39.33 76.69 38.79 76.45 38.65 75.29 39.59 74.61 40.15 74.86 39.73 75.78 40.62 76.17 39.73 75.78 39.33 76.69"/><polygon class="cls-2" points="44.86 87.25 43.76 86.89 44.72 84.96 45.62 85.41 45.24 86.34 46.06 86.75 45.24 86.34 44.86 87.25"/><path class="cls-2" d="M40,77l-.54-.25.85-1.81.52.24.11,1.16Zm.31-2.06-.42.9Z"/><path class="cls-2" d="M32.18,97.25,30,96.09a9.17,9.17,0,0,1-2.24-1.44A11.9,11.9,0,0,1,25.44,92a13,13,0,0,1-1.79-6.56A14.28,14.28,0,0,1,24.32,82l.44-1,.25-.55a8.77,8.77,0,0,1,1-1.66,10.19,10.19,0,0,1,2.57-2.47,11.22,11.22,0,0,1,3.19-1.6,11.77,11.77,0,0,1,7-.26,3.07,3.07,0,0,1,1.09.32l.61.27.75.22L43.5,76l6,2.28a3.61,3.61,0,0,0,.79,0h.15A4.44,4.44,0,0,0,54,76.44a4,4,0,0,0,.66-3.6,12.8,12.8,0,0,0-1.08-.9A6.68,6.68,0,0,1,52.49,71l-.41-.5L57.6,59.33l2.28,1.48a17.88,17.88,0,0,1,2.73,2.5A15.62,15.62,0,0,1,65.85,77l0,.21a7.13,7.13,0,0,1-.48,1.59l-.28.62-.2.75-.15.32a16.52,16.52,0,0,1-2,2.9A15.18,15.18,0,0,1,50.1,88.62,14.17,14.17,0,0,1,46.85,88a3,3,0,0,1-1.07-.33l-1-.43.12-.29-.13.29,0-.16-.07.14.08-.18.23-.77-.41.91-8.83-4A3.15,3.15,0,0,0,34,83.12a2.54,2.54,0,0,0-.8.39L33,83.6a2.37,2.37,0,0,0-.52.38l-.42,1a3.15,3.15,0,0,0-.21.82l0,.25a3.52,3.52,0,0,0,1.42,3.29l1.8,1.1Zm-6-14.62a11.91,11.91,0,0,0-.56,2.87A10.89,10.89,0,0,0,27.17,91a9.57,9.57,0,0,0,1.92,2.17,7.44,7.44,0,0,0,1.79,1.15l.3.16,1.36-3.26-.43-.26a5.5,5.5,0,0,1-2.25-5.31l0-.21a4.89,4.89,0,0,1,.36-1.31l.67-1.37a4.21,4.21,0,0,1,1.27-1,3.89,3.89,0,0,1,1.47-.63,5,5,0,0,1,3,.24l9.93,4.46c.14.06.32.14.37.15h.18l.17.06a12.47,12.47,0,0,0,2.92.58A13.22,13.22,0,0,0,61.18,82a14.3,14.3,0,0,0,1.76-2.53l.1-.24.11-.53L63.5,78a5.92,5.92,0,0,0,.35-1.21l.06-.25a12.64,12.64,0,0,0,0-6.29v0a12.75,12.75,0,0,0-2.79-5.55,16.19,16.19,0,0,0-2.38-2.18l-.33-.22-3.9,7.9.29.23c.92.71,1.5,1.17,1.7,1.69a5.94,5.94,0,0,1-.86,5.53,6.43,6.43,0,0,1-5.06,2.7,5.31,5.31,0,0,1-1.28,0l-.37,0-1.8-.81-4.27-1.52L39.1,76.58a2.48,2.48,0,0,0-.4-.15h-.15l-.12,0a9.92,9.92,0,0,0-6,.19A9.67,9.67,0,0,0,29.73,78a8.36,8.36,0,0,0-2.09,2,6.7,6.7,0,0,0-.81,1.26Zm28.41-9.87h0Z"/><polygon class="cls-2" points="39.53 76.77 39.36 76.7 39.37 76.7 39.32 76.68 39.53 76.33 40.16 74.88 40.09 75.08 40.19 74.88 40.35 74.96 39.97 75.61 39.53 76.77"/></g></g></svg>