<svg xmlns="http://www.w3.org/2000/svg" viewBox="0 0 121.68 119.8"><defs><style>.cls-1{fill:#136f84;}.cls-2{fill:#fff;}.cls-3{opacity:0.65;}.cls-4{fill:#2feded;}</style></defs><g id="Capa_2" data-name="Capa 2"><g id="Capa_1-2" data-name="Capa 1"><rect class="cls-1" width="121.68" height="119.8" rx="13.14"/><path class="cls-2" d="M49.68,102a4.2,4.2,0,0,1-2.94-1.17,3.29,3.29,0,0,1-1-2.3V92.16L45.44,92H35V91.9c-3.93-.44-7-3.4-7-7V71c0-.54-.08-.54-.47-.54H24.24a3,3,0,0,1-2.5-1.28,2.52,2.52,0,0,1-.29-2.37L28,50c.1-1.85,1.24-16.44,12.49-25.4,8-6.36,19.05-8.25,32.91-5.61C88.6,21.87,95.14,30.2,97.94,36.68c4.53,10.46,2.79,23.7-4.65,35.42-5.1,8-4.56,23.89-3.83,26.86a2.24,2.24,0,0,1-.42,1.91,2.75,2.75,0,0,1-2.15,1l-37.2.1ZM37,90H46.1l.27.22a.91.91,0,0,0,.4.2,1.13,1.13,0,0,1,1,1.14v7a1.22,1.22,0,0,0,.4.88,2.16,2.16,0,0,0,1.52.59h0l37.2-.1a.71.71,0,0,0,.57-.24.24.24,0,0,0,.06-.2C86.72,96.19,86.09,79.7,91.6,71c7-11,8.71-23.84,4.5-33.55C92.36,28.82,84.37,23.1,73,20.93c-13.24-2.52-23.77-.77-31.27,5.2-11,8.79-11.76,24-11.76,24.1v.16L23.31,67.53a.57.57,0,0,0,.08.52,1,1,0,0,0,.85.41h3.29A2.3,2.3,0,0,1,30,71V84.93c0,2.72,2.75,5,6,5Z"/><g class="cls-3"><path class="cls-4" d="M75.76,40.06l2.81,0c.34,1.37.63,2.76.88,4.15a13.46,13.46,0,0,1,4.6,2c1.23-.73,2.4-1.57,3.66-2.26l2,2.07c-.81,1.16-1.54,2.37-2.32,3.55a12.62,12.62,0,0,1,1.85,4.6l4.17,1,0,2.86c-1.4.27-2.78.57-4.17.88a13.08,13.08,0,0,1-1.94,4.56c.71,1.24,1.53,2.41,2.22,3.65-.69.66-1.34,1.35-2.06,2-1.15-.82-2.36-1.53-3.53-2.32a12.87,12.87,0,0,1-4.6,1.87c-.36,1.37-.63,2.77-1,4.14l-2.84,0c-.33-1.37-.61-2.76-.88-4.14a12.87,12.87,0,0,1-4.6-2c-1.17.74-2.35,1.47-3.53,2.2a16,16,0,0,1-2.07-2c.72-1.22,1.54-2.38,2.3-3.58a13.41,13.41,0,0,1-1.88-4.62c-1.38-.31-2.76-.66-4.14-1l0-2.85c1.39-.32,2.8-.58,4.19-.91a12.76,12.76,0,0,1,1.94-4.57C66,48.22,65.32,47,64.55,45.79c.68-.65,1.34-1.34,2-2,1.24.72,2.4,1.57,3.62,2.33a13.62,13.62,0,0,1,4.59-1.9C75.12,42.83,75.39,41.44,75.76,40.06Zm-.4,7.19a9.35,9.35,0,1,0,10.8,7.34,9.35,9.35,0,0,0-10.8-7.34Z"/><path class="cls-4" d="M75.92,53.58A3.06,3.06,0,1,1,74,56.08,3.16,3.16,0,0,1,75.92,53.58Z"/><path class="cls-4" d="M51.08,25.63l1.85-.74c.62.82,1.23,1.66,1.8,2.52a9.64,9.64,0,0,1,3.59.08c.59-.83,1.11-1.7,1.72-2.5l1.9.84c-.18,1-.3,2-.46,3a10,10,0,0,1,2.58,2.56c1-.17,2-.31,3-.47l.83,1.9c-.82.56-1.64,1.14-2.45,1.72a9.33,9.33,0,0,1,.09,3.57c.83.63,1.71,1.18,2.54,1.82-.26.63-.48,1.27-.76,1.88-1-.23-2-.38-3-.59a8.8,8.8,0,0,1-2.44,2.5c.16,1,.4,2,.58,3l-1.86.75C60,46.66,59.39,45.81,58.8,45a9.19,9.19,0,0,1-3.58-.05c-.54.81-1.09,1.61-1.64,2.42a11.25,11.25,0,0,1-1.94-.75c.11-1,.29-2,.43-3A10.24,10.24,0,0,1,49.47,41c-1,.17-2,.31-3,.49l-.83-1.91c.81-.59,1.65-1.15,2.46-1.74a9.14,9.14,0,0,1-.1-3.57c-.86-.58-1.69-1.2-2.54-1.79.25-.62.47-1.26.7-1.89,1,.15,2,.4,3.06.57a9.18,9.18,0,0,1,2.42-2.51C51.49,27.65,51.25,26.65,51.08,25.63ZM53,30.53a6.55,6.55,0,0,0-2.4,7.89,7.12,7.12,0,0,0,3.7,3.89A6.64,6.64,0,0,0,60,42.19a6.33,6.33,0,0,0,3.36-4.63,6.84,6.84,0,0,0-1.19-5.08,7,7,0,0,0-4.55-2.9A6.55,6.55,0,0,0,53,30.53Z"/><path class="cls-4" d="M55.21,34.59a2.22,2.22,0,0,1,3.27.29,2.17,2.17,0,0,1-.75,3.33,2.28,2.28,0,0,1-3-1.43A2.19,2.19,0,0,1,55.21,34.59Z"/></g></g></g></svg>