<svg xmlns="http://www.w3.org/2000/svg" viewBox="0 0 121.68 119.8"><defs><style>.cls-1{fill:#136f84;}.cls-2{fill:#fff;}.cls-3{fill:#2feded;opacity:0.65;}</style></defs><g id="Capa_2" data-name="Capa 2"><g id="Capa_1-2" data-name="Capa 1"><rect class="cls-1" width="121.68" height="119.8" rx="13.14"/><path class="cls-2" d="M21.85,94.38a6.82,6.82,0,0,0,6.82,6.81H89a6.82,6.82,0,0,0,6.82-6.81V85A11.84,11.84,0,0,0,90.09,75l-.24-.15V59.46a15,15,0,0,0-7.34-13l-.42-.25h0l-.55-.27-.22-.11a14.87,14.87,0,0,0-13.26-.09l-.35.26a15.12,15.12,0,0,0-8.19,13.46V70.91H48.12V68l.23-.15A11,11,0,0,0,53,58.5V54.41l.14-.14a9.24,9.24,0,0,0,2.6-6.43V43H42.21a9.3,9.3,0,0,0-9.29,9.29v7.11a10,10,0,0,0,4.67,8.48l.23.14v2.92H32.29A10.45,10.45,0,0,0,21.85,81.35Zm26.44,4.89H45.86V93.58h2.43a2.85,2.85,0,0,1,0,5.69Zm16.76-.72.36.72H52.2l.36-.72a4.75,4.75,0,0,0,.5-2.12,4.8,4.8,0,0,0-2.72-4.31l-.59-.28.42-.49a10.05,10.05,0,0,1,7.68-3.56h1.9a10,10,0,0,1,7.68,3.56l.42.49-.58.28a4.77,4.77,0,0,0-2.22,6.43Zm6.7.72H69.32a2.85,2.85,0,1,1,0-5.69h2.43ZM93.86,85v9.36A4.9,4.9,0,0,1,89,99.27H73.67V93.58H85.73a1,1,0,1,0,0-1.92H70l-.14-.24a11.94,11.94,0,0,0-5.63-4.68l-.78-.32.65-.53a8.4,8.4,0,0,0,2.34-10l-.32-.71h3.61l.09.39a5,5,0,0,0,9.66,0l.09-.39H84A9.84,9.84,0,0,1,93.86,85ZM74.69,69.85a7,7,0,0,1-7-7V59.31h3.91a6.21,6.21,0,0,0,4-1.48l.33-.29.33.3A5.57,5.57,0,0,0,80,59.31h1.69v3.52A7,7,0,0,1,74.69,69.85Zm3,1.43v3.21a3,3,0,0,1-6.06,0V71.26l.63.18a8.89,8.89,0,0,0,4.8,0ZM61.45,59.46a13.18,13.18,0,0,1,7.26-11.81.87.87,0,0,0,.23-.16l.13-.09a12.89,12.89,0,0,1,11.45.18l.13.07a13.23,13.23,0,0,1,7.27,11.81V73.92l-.64-.19A11.9,11.9,0,0,0,84,73.28H79.63v-3l.21-.15a9,9,0,0,0,3.8-7.31V58.35a1,1,0,0,0-1-1H80a3.71,3.71,0,0,1-2.72-1.2l-.22-.24.13-.3a6,6,0,0,0,.53-2.5,1,1,0,1,0-1.92,0,4.25,4.25,0,0,1-4.25,4.24H66.7a1,1,0,0,0-1,1v4.48a9,9,0,0,0,3.77,7.29l.21.14v3H64.58l-.14-.13a8.24,8.24,0,0,0-2.67-1.63l-.32-.13ZM58.8,72.9a6.48,6.48,0,1,1-6.48,6.48A6.48,6.48,0,0,1,58.8,72.9ZM34.85,52.26a7.37,7.37,0,0,1,7.36-7.36H53.83v2.94a7.36,7.36,0,0,1-7.36,7.35H34.85Zm0,7.11V57.12H46.47a9.11,9.11,0,0,0,3.91-.87l.72-.33V58.5c0,5.21-3.42,9-8.13,9A8.13,8.13,0,0,1,34.85,59.37ZM46.2,68.91v3.23a3.23,3.23,0,0,1-6.45,0V68.91l.63.17a10.14,10.14,0,0,0,5.19,0ZM23.78,81.35a8.52,8.52,0,0,1,8.51-8.51h5.56l.09.39a5.15,5.15,0,0,0,10.07,0l.08-.39h5.32l-.78.84a8.39,8.39,0,0,0,.85,12.21l.65.53-.78.32a11.86,11.86,0,0,0-5.62,4.68l-.15.24H31.87a1,1,0,1,0,0,1.92H43.93v5.69H28.67a4.9,4.9,0,0,1-4.89-4.89Z"/><path class="cls-3" d="M105.32,48.31a3,3,0,0,1-1.55-.43L60,21.51,16.55,47.88a3,3,0,1,1-3.11-5.13l45-27.32a3,3,0,0,1,3.11,0l45.28,27.31a3,3,0,0,1-1.55,5.57Z"/></g></g></svg>